<?xml version="1.0" standalone="no"?>
<!DOCTYPE svg PUBLIC "-//W3C//DTD SVG 20010904//EN"
 "http://www.w3.org/TR/2001/REC-SVG-20010904/DTD/svg10.dtd">
<svg version="1.0" xmlns="http://www.w3.org/2000/svg"
 width="512.000000pt" height="512.000000pt" viewBox="0 0 512.000000 512.000000"
 preserveAspectRatio="xMidYMid meet">

<g transform="translate(0.000000,512.000000) scale(0.100000,-0.100000)"
fill="#000000" stroke="none">
<path d="M2287 4955 c-855 -117 -1522 -787 -1643 -1651 -19 -142 -15 -441 9
-569 61 -323 170 -578 357 -831 93 -125 171 -206 345 -357 418 -364 774 -793
1025 -1235 29 -51 65 -103 81 -117 52 -43 141 -45 192 -4 14 11 58 75 98 142
276 467 588 839 1018 1218 251 220 392 398 516 654 299 614 250 1330 -129
1900 -311 467 -795 770 -1356 850 -128 18 -379 18 -513 0z m463 -1138 c208
-57 368 -171 480 -343 204 -312 161 -728 -102 -994 -360 -364 -958 -303 -1238
127 -89 136 -125 259 -125 433 0 174 36 297 124 432 119 182 304 308 521 354
80 17 262 12 340 -9z"/>
</g>
</svg>
