<?xml version="1.0" standalone="no"?>
<!DOCTYPE svg PUBLIC "-//W3C//DTD SVG 20010904//EN"
 "http://www.w3.org/TR/2001/REC-SVG-20010904/DTD/svg10.dtd">
<svg version="1.0" xmlns="http://www.w3.org/2000/svg"
 width="175.000000pt" height="174.000000pt" viewBox="0 0 175.000000 174.000000"
 preserveAspectRatio="xMidYMid meet">

<g transform="translate(0.000000,174.000000) scale(0.100000,-0.100000)"
fill="#000000" stroke="none">
<path d="M710 1725 c-92 -19 -152 -41 -255 -93 -74 -38 -108 -64 -191 -147
-142 -141 -214 -272 -248 -454 -115 -606 425 -1137 1030 -1012 534 110 838
686 626 1188 -86 207 -277 391 -492 476 -136 53 -328 71 -470 42z m22 -612
l138 -137 138 137 c151 150 170 160 217 112 48 -47 38 -66 -112 -217 l-137
-138 137 -138 c148 -149 156 -165 116 -216 -14 -18 -30 -26 -51 -26 -27 0 -52
20 -170 137 l-138 137 -138 -137 c-151 -150 -170 -160 -217 -112 -48 47 -38
66 112 217 l137 138 -137 138 c-150 151 -160 170 -112 217 47 48 66 38 217
-112z"/>
</g>
</svg>
